<?xml version="1.0" standalone="no"?>
<!DOCTYPE svg PUBLIC "-//W3C//DTD SVG 20010904//EN"
 "http://www.w3.org/TR/2001/REC-SVG-20010904/DTD/svg10.dtd">
<svg version="1.0" xmlns="http://www.w3.org/2000/svg"
 width="700.000000pt" height="700.000000pt" viewBox="0 0 700.000000 700.000000"
 preserveAspectRatio="xMidYMid meet">
<metadata>
Created by potrace 1.14, written by Peter Selinger 2001-2017
</metadata>
<g transform="translate(0.000000,700.000000) scale(0.100000,-0.100000)"
fill="#000000" stroke="none">
<path d="M3378 6915 c-2 -1 -61 -5 -132 -9 -71 -4 -132 -9 -135 -10 -3 -2 -34
-7 -67 -10 -96 -9 -346 -61 -479 -100 -638 -183 -1202 -541 -1636 -1036 -317
-363 -550 -780 -692 -1240 -42 -137 -90 -333 -102 -417 -3 -21 -8 -49 -10 -63
-3 -14 -7 -47 -11 -75 -3 -27 -8 -57 -9 -66 -24 -125 -24 -622 -1 -769 3 -14
7 -47 10 -75 28 -246 116 -576 227 -847 54 -131 175 -371 234 -463 19 -30 35
-59 35 -64 0 -5 3 -11 8 -13 4 -2 25 -30 46 -63 216 -332 600 -716 931 -931
33 -21 61 -42 63 -46 2 -5 7 -8 11 -8 4 0 46 -23 92 -51 327 -198 824 -381
1154 -424 28 -4 52 -8 55 -10 9 -6 148 -21 285 -32 160 -13 504 -6 650 13 700
91 1336 375 1850 828 109 96 264 254 349 356 39 47 74 87 77 90 16 14 146 199
209 298 191 301 361 705 437 1037 14 63 54 285 59 328 3 29 7 63 10 77 23 145
23 611 -1 762 -2 13 -6 46 -9 73 -19 167 -74 407 -138 604 -333 1021 -1129
1827 -2147 2175 -228 78 -491 137 -721 161 -30 3 -71 8 -91 11 -39 6 -405 14
-411 9z m548 -600 c243 -276 463 -585 626 -880 43 -77 167 -329 191 -387 l16
-38 -57 -16 c-31 -8 -77 -22 -102 -30 -25 -7 -97 -25 -160 -40 -126 -28 -117
-27 -245 -48 -85 -15 -118 -19 -217 -31 -24 -3 -59 -7 -78 -10 -19 -2 -79 -7
-132 -10 -77 -5 -98 -3 -99 7 -1 18 -1 1697 0 1728 1 22 12 14 94 -70 51 -52
124 -131 163 -175z m-593 -612 c-1 -472 -2 -864 -2 -871 -1 -11 -21 -12 -98
-7 -54 3 -109 8 -123 10 -14 2 -54 7 -90 10 -36 3 -90 10 -120 15 -30 5 -71
12 -90 15 -19 3 -46 8 -60 10 -14 3 -36 7 -50 10 -101 19 -151 30 -270 62 -74
19 -139 39 -143 43 -14 13 113 282 243 515 131 234 356 550 564 790 86 100
232 255 239 255 1 0 1 -386 0 -857z m-601 688 c-310 -378 -556 -783 -753
-1239 l-18 -42 -38 16 c-21 9 -47 20 -58 25 -170 66 -685 351 -685 378 0 8
180 192 254 259 316 289 743 533 1151 657 46 14 92 28 102 30 10 2 43 10 73
19 30 8 58 15 62 15 4 1 -36 -53 -90 -118z m1621 72 c352 -99 713 -280 1012
-508 86 -66 100 -78 199 -165 64 -57 256 -253 256 -262 0 -7 -118 -83 -253
-163 -102 -59 -418 -215 -437 -215 -6 0 -21 -7 -33 -15 -22 -14 -23 -13 -52
53 -41 97 -177 370 -208 419 -15 24 -27 45 -27 48 0 8 -139 231 -199 320 -70
104 -263 360 -342 453 -70 83 -77 80 84 35z m-3359 -1218 c8 -8 17 -15 21 -15
3 0 32 -17 63 -38 154 -104 485 -278 679 -357 51 -21 90 -42 87 -47 -5 -7 -48
-156 -58 -198 -2 -8 -9 -35 -16 -60 -7 -25 -13 -52 -15 -60 -2 -8 -10 -45 -19
-83 -9 -37 -18 -79 -20 -95 -29 -171 -36 -215 -41 -267 -3 -33 -8 -69 -10 -80
-5 -27 -19 -202 -19 -242 0 -26 -4 -33 -20 -34 -27 -1 -1188 -1 -1198 0 -7 1
-5 55 6 161 6 55 31 223 41 270 3 14 7 36 10 50 2 14 12 52 21 85 8 33 18 71
20 85 10 52 87 270 136 385 74 174 162 337 279 517 27 42 32 44 53 23z m5140
-145 c125 -206 247 -473 310 -682 48 -158 97 -381 111 -503 3 -27 8 -66 10
-85 3 -19 7 -63 10 -97 l5 -63 -27 -1 c-103 -3 -1144 -1 -1147 2 -3 2 -7 49
-11 104 -3 55 -8 111 -10 125 -2 14 -7 54 -10 90 -4 36 -9 74 -11 85 -2 10 -6
37 -9 60 -16 110 -69 347 -110 490 -26 88 -47 166 -48 174 -1 10 31 29 93 56
125 53 294 137 399 197 46 26 85 48 87 48 3 0 193 121 224 143 25 17 25 17 48
-10 13 -15 51 -75 86 -133z m-1230 -493 c59 -193 113 -437 131 -590 3 -23 7
-58 10 -77 2 -19 6 -62 9 -95 3 -33 8 -86 11 -117 6 -58 6 -58 -22 -59 -15 0
-331 -1 -701 -2 -591 -2 -672 0 -673 13 -1 20 -1 770 0 791 1 12 15 16 64 19
132 5 267 18 377 35 14 2 45 6 70 10 42 5 60 8 120 20 14 3 41 8 60 11 19 3
43 7 52 10 10 3 30 7 45 10 45 8 324 82 368 97 22 8 43 13 47 10 4 -2 18 -41
32 -86z m-2540 23 c83 -21 198 -48 256 -59 140 -27 157 -30 215 -37 28 -3 56
-7 64 -10 7 -2 41 -7 75 -10 33 -3 72 -7 86 -10 14 -2 79 -7 145 -10 66 -4
122 -10 125 -14 4 -6 5 -706 1 -795 -1 -20 -7 -20 -658 -18 -362 1 -666 2
-677 2 -17 1 -18 8 -11 104 4 56 8 118 11 137 7 65 15 125 19 150 12 81 15 97
20 120 3 14 8 41 11 60 9 58 60 259 89 357 27 90 28 91 53 82 14 -5 93 -27
176 -49z m-723 -1299 c3 -1 7 -31 8 -68 1 -38 3 -86 6 -108 7 -68 15 -133 21
-182 11 -102 44 -282 69 -388 9 -38 18 -79 21 -90 7 -38 52 -190 82 -283 16
-50 27 -94 23 -96 -3 -2 -67 -29 -141 -61 -217 -92 -564 -277 -677 -361 l-32
-25 -46 63 c-108 146 -248 403 -330 603 -71 173 -143 414 -171 570 -16 92 -35
220 -39 265 -3 30 -7 78 -10 107 -5 48 -3 52 17 55 19 2 1179 1 1199 -1z
m1690 -11 c1 -19 1 -870 0 -890 -1 -10 -10 -16 -23 -16 -113 -2 -394 -29 -513
-50 -133 -24 -220 -41 -304 -60 -36 -9 -73 -17 -81 -19 -31 -6 -106 -27 -148
-41 -23 -8 -49 -14 -57 -14 -9 0 -26 41 -49 118 -20 64 -40 131 -46 147 -9 30
-43 173 -54 230 -4 17 -9 41 -12 55 -11 53 -33 198 -39 255 -4 33 -8 67 -10
75 -11 43 -16 213 -7 219 6 3 310 6 676 6 585 0 666 -2 667 -15z m1722 11 c15
-1 17 -9 12 -68 -14 -184 -28 -292 -51 -423 -13 -68 -41 -197 -68 -310 -13
-54 -32 -119 -62 -212 l-34 -106 -63 19 c-232 72 -549 135 -822 163 -27 3 -70
8 -95 10 -25 3 -80 6 -122 8 -71 2 -78 4 -79 22 0 12 -1 216 -1 454 -1 298 2
436 9 440 8 5 1274 8 1376 3z m1505 0 c22 -1 23 -4 18 -48 -3 -27 -8 -77 -11
-113 -45 -481 -245 -1019 -533 -1429 l-48 -68 -128 79 c-155 96 -407 227 -573
298 l-121 52 23 66 c23 66 90 292 100 335 34 155 66 323 71 367 3 30 8 58 9
61 2 3 7 37 10 75 4 38 8 80 10 93 2 13 7 69 11 125 3 56 10 103 14 106 6 4
1045 5 1148 1z m-3226 -2041 c0 -432 -1 -798 -1 -815 l-1 -29 -46 49 c-253
271 -423 482 -591 736 -68 103 -153 240 -166 269 -4 8 -17 31 -28 50 -30 48
-165 320 -173 346 -5 17 -2 23 16 27 13 2 78 19 146 36 127 33 340 75 427 85
28 4 66 8 85 11 19 3 67 8 105 11 39 4 71 7 72 8 1 1 36 1 79 1 l77 0 -1 -785z
m578 775 c8 -2 45 -6 82 -10 37 -3 77 -8 90 -10 93 -16 157 -27 183 -30 17 -2
80 -16 140 -30 61 -15 117 -28 126 -30 64 -14 180 -49 185 -56 13 -22 -200
-420 -344 -639 -135 -206 -342 -474 -481 -624 -150 -161 -210 -220 -217 -214
-5 6 -10 1598 -5 1652 1 7 205 0 241 -9z m-1900 -277 c0 -24 179 -375 262
-513 127 -212 329 -506 424 -615 60 -69 134 -163 130 -167 -11 -12 -344 91
-496 154 -137 56 -331 154 -430 217 -245 156 -405 282 -592 470 l-79 79 93 57
c183 112 386 216 583 299 77 32 105 37 105 19z m3140 -43 c144 -60 413 -201
563 -296 l58 -36 -79 -79 c-306 -308 -655 -539 -1048 -697 -151 -61 -414 -142
-414 -128 0 3 30 42 66 86 205 249 415 558 562 825 38 70 148 291 165 332 18
42 8 43 127 -7z"/>
</g>
</svg>
